<svg width="44" height="44" viewBox="0 0 44 44" fill="none" xmlns="http://www.w3.org/2000/svg">
<rect width="44" height="44" rx="14" fill="#15C0E6" fill-opacity="0.100333"/>
<path fill-rule="evenodd" clip-rule="evenodd" d="M31.1282 12.7574C28.8138 10.443 25.0715 10.4104 22.7173 12.6843L20.9869 14.4044L20.9035 14.4984C20.5973 14.8898 20.6234 15.4571 20.9828 15.8186C21.3722 16.2103 22.0054 16.2121 22.397 15.8227L24.117 14.1127L24.2816 13.9624C25.8471 12.6103 28.2242 12.6818 29.714 14.1716C31.2569 15.7145 31.2786 18.2093 29.7627 19.7788L26.7749 22.7665L26.6066 22.9253C25.8026 23.6417 24.7405 24.0058 23.6601 23.9284C22.5025 23.8455 21.4379 23.2639 20.7428 22.3346C20.4119 21.8923 19.7853 21.802 19.343 22.1328C18.9008 22.4636 18.8104 23.0903 19.1412 23.5325C20.184 24.9266 21.7808 25.799 23.5172 25.9233C25.2536 26.0477 26.9585 25.4117 28.1892 24.1805L31.1891 21.1807L31.3648 20.991C33.4718 18.618 33.3817 15.0109 31.1282 12.7574ZM24.7428 20.3346C23.7 18.9406 22.1032 18.0681 20.3668 17.9438L20.0929 17.9304C18.4522 17.888 16.8607 18.5202 15.6948 19.6866L12.6949 22.6865L12.5192 22.8761C10.4122 25.2491 10.5023 28.8563 12.7558 31.1098C15.0702 33.4242 18.8124 33.4567 21.1667 31.1828L22.8891 29.4607L22.9723 29.3665C23.2773 28.9742 23.2496 28.4069 22.8891 28.0465C22.4986 27.6559 21.8654 27.6559 21.4749 28.0465L19.7649 29.7565L19.6005 29.9066C18.0368 31.2569 15.6597 31.1853 14.17 29.6955C12.6271 28.1526 12.6054 25.6578 14.1213 24.0883L17.1091 21.1007L17.2773 20.9418C18.0814 20.2255 19.1435 19.8613 20.2239 19.9387C21.3815 20.0216 22.4461 20.6032 23.1412 21.5325C23.472 21.9748 24.0987 22.0651 24.541 21.7343C24.9832 21.4035 25.0736 20.7768 24.7428 20.3346Z" fill="#15C0E6"/>
</svg>
