<svg width="44" height="44" viewBox="0 0 44 44" fill="none" xmlns="http://www.w3.org/2000/svg">
<rect width="44" height="44" rx="14" fill="#6D5DD3" fill-opacity="0.0968094"/>
<path fill-rule="evenodd" clip-rule="evenodd" d="M22.2412 11.4651C24.1947 9.51163 27.362 9.51163 29.3154 11.4651C31.2097 13.3594 31.2671 16.395 29.4873 18.3588L29.3151 18.5397L20.1154 27.7293C18.9434 28.9013 17.0432 28.9013 15.8712 27.7293C14.7461 26.6042 14.7011 24.808 15.7366 23.6288L15.8716 23.4847L24.3616 15.0047C24.7524 14.6144 25.3856 14.6148 25.7759 15.0055C26.1361 15.3662 26.1635 15.9335 25.8583 16.3256L25.775 16.4197L17.2854 24.8993C16.8945 25.2903 16.8945 25.9242 17.2854 26.3151C17.6463 26.676 18.2142 26.7038 18.6072 26.3981L18.7016 26.3147L27.9012 17.1251C29.0737 15.9527 29.0737 14.0518 27.9012 12.8793C26.7757 11.7538 24.9788 11.7088 23.7995 12.7443L23.6554 12.8793L14.4654 22.0693C12.5115 24.0233 12.5115 27.1912 14.4654 29.1451C16.3602 31.0398 19.3964 31.0972 21.3603 29.3174L21.5412 29.1451L30.7312 19.9551C31.1218 19.5646 31.7549 19.5646 32.1454 19.9551C32.5059 20.3156 32.5337 20.8828 32.2286 21.2751L32.1454 21.3693L22.9554 30.5593C20.2205 33.2943 15.7862 33.2943 13.0512 30.5593C10.3784 27.8865 10.3177 23.5908 12.869 20.8442L13.0512 20.6551L22.2412 11.4651Z" fill="#6D5DD3"/>
</svg>
